<svg width="22" height="20" viewBox="0 0 22 20" fill="none" xmlns="http://www.w3.org/2000/svg">
<g clip-path="url(#clip0_50_1107)">
<g clip-path="url(#clip1_50_1107)">
<g clip-path="url(#clip2_50_1107)">
<path d="M10.9991 0.0300293C9.26507 0.0300293 7.85938 1.43574 7.85938 3.16976C7.85938 4.90377 9.26507 6.30948 10.9991 6.30948C12.7331 6.30948 14.1388 4.90377 14.1388 3.16976C14.1388 1.43574 12.7331 0.0300293 10.9991 0.0300293Z" fill="white"/>
<path d="M18.072 1.59839C16.7702 1.59839 15.7148 2.65371 15.7148 3.95553C15.7148 5.25735 16.7702 6.31268 18.072 6.31268C19.3738 6.31268 20.4291 5.25735 20.4291 3.95553C20.4291 2.65371 19.3738 1.59839 18.072 1.59839Z" fill="white"/>
<path d="M3.92746 1.59839C2.62564 1.59839 1.57031 2.65371 1.57031 3.95553C1.57031 5.25735 2.62564 6.31268 3.92746 6.31268C5.22927 6.31268 6.2846 5.25735 6.2846 3.95553C6.2846 2.65371 5.22927 1.59839 3.92746 1.59839Z" fill="white"/>
<path d="M6.28519 9.44531C6.29066 8.58211 6.99209 7.88403 7.85659 7.88403H14.1423C15.0102 7.88403 15.7137 8.58759 15.7137 9.45548V14.1702C15.7137 14.3328 15.7056 14.4938 15.6894 14.6522C15.6553 14.9886 15.5857 15.3145 15.4846 15.6263C14.8711 17.5173 13.0949 18.8845 10.9994 18.8845C8.88399 18.8845 7.09397 17.4911 6.49709 15.5721C6.35936 15.1292 6.28516 14.6584 6.28516 14.1702V9.45546C6.28516 9.45208 6.28517 9.44869 6.28519 9.44531Z" fill="white"/>
<path d="M4.71429 9.45546C4.71429 8.88302 4.86733 8.34632 5.13474 7.88403H1.57143C0.70356 7.88403 0 8.58759 0 9.45546V13.3845C0 15.5542 1.75888 17.3131 3.92857 17.3131C4.4489 17.3131 4.94562 17.2119 5.4001 17.0282C4.96163 16.1708 4.71429 15.1993 4.71429 14.1702V9.45546Z" fill="white"/>
<path d="M17.2873 9.45548V14.1702C17.2873 15.1993 17.04 16.1708 16.6016 17.0282C17.056 17.2119 17.5527 17.3131 18.073 17.3131C20.2427 17.3131 22.0016 15.5542 22.0016 13.3845V9.45546C22.0016 8.58759 21.2981 7.88403 20.4302 7.88403H16.8668C17.1343 8.34632 17.2873 8.88302 17.2873 9.45548Z" fill="white"/>
</g>
</g>
</g>
<defs>
<clipPath id="clip0_50_1107">
<rect width="22" height="19" fill="white" transform="translate(0 0.0300293)"/>
</clipPath>
<clipPath id="clip1_50_1107">
<rect width="22" height="19" fill="white" transform="translate(0 0.0300293)"/>
</clipPath>
<clipPath id="clip2_50_1107">
<rect width="22" height="19" fill="white" transform="translate(0 0.0300293)"/>
</clipPath>
</defs>
</svg>
