<svg width="22" height="23" viewBox="0 0 22 23" fill="none" xmlns="http://www.w3.org/2000/svg">
<g clip-path="url(#clip0_50_1100)">
<g clip-path="url(#clip1_50_1100)">
<g clip-path="url(#clip2_50_1100)">
<path d="M0.315412 20.2421H15.1102V21.2085C15.1102 21.7607 14.6667 22.2044 14.1147 22.2044H1.31093C0.758961 22.2044 0.315412 21.7607 0.315412 21.2085V20.2421ZM19.526 22.52L15.1004 18.1023V18.2699H0.315412V16.2977H13.2966L11.3253 14.3255H0.315412C0.315412 11.1305 2.74014 9.22733 5.61828 8.61594L0 2.99514L1.39964 1.60474L12.1434 12.3533L14.1147 14.3255L20.9158 21.1296L19.526 22.52ZM9.35394 12.3533L7.38262 10.3811C5.98298 10.4402 3.91308 10.9333 2.89785 12.3533H9.35394ZM22 4.46444H17.0717V0.52002H15.1004V4.46444H10.172L10.3987 6.43665H19.8217L18.836 16.2681L20.6398 18.0727L22 4.46444Z" fill="white"/>
</g>
</g>
</g>
<defs>
<clipPath id="clip0_50_1100">
<rect width="22" height="22" fill="white" transform="translate(0 0.52002)"/>
</clipPath>
<clipPath id="clip1_50_1100">
<rect width="22" height="22" fill="white" transform="translate(0 0.52002)"/>
</clipPath>
<clipPath id="clip2_50_1100">
<rect width="22" height="22" fill="white" transform="translate(0 0.52002)"/>
</clipPath>
</defs>
</svg>
